<svg xmlns="http://www.w3.org/2000/svg" width="64" height="64" stroke="#fff"><g fill="none" stroke-width="2" stroke-miterlimit="10"><path d="M51.799 15.202c10.936 10.933 10.936 28.662 0 39.595-10.935 10.938-28.664 10.938-39.598 0-10.935-10.933-10.935-28.662 0-39.595 10.934-10.936 28.663-10.936 39.598 0z" stroke-dasharray="176,178"/><path d="M32 7V1h6" stroke-dasharray="12,14"/><path d="M26 1h6" stroke-dasharray="6,8"/><path d="M32 63v-4m0-48V7M4 35h4m48 0h4" stroke-dasharray="4,6"/><path d="M14.564 17.565l2.83 2.829m29.212 29.212l2.83 2.83m0-34.871l-2.829 2.829M17.395 49.606l-2.831 2.83" stroke-dasharray="5,7"/><path d="M32 21v12" stroke-dasharray="12,14"/><path d="M29 35a3 3 0 1 1 6 0 3 3 0 1 1-6 0" stroke-dasharray="19,21"/></g></svg>