<svg xmlns="http://www.w3.org/2000/svg" viewBox="0 0 18.1 17"><path d="M16.6 10.9c-.2-.1-.4-.2-.6-.2V10c0-2.7-1.6-5.2-4.1-6.4C12.3 2 11.3.4 9.6 0S6.5.7 6.2 2.3c-.1.4-.1.9 0 1.3C3.7 4.8 2.1 7.3 2.1 10v.7c-.2.1-.4.1-.6.2C.1 11.7-.4 13.6.4 15c.8 1.4 2.6 2 4.1 1.1.2-.1.4-.2.5-.4 2.4 1.7 5.7 1.7 8.1 0 1.2 1.1 3.1 1 4.2-.2s1-3.1-.2-4.2c-.1-.1-.3-.3-.5-.4zM9.1 1c1.1 0 2 .9 2 2s-.9 2-2 2-2-.9-2-2 .9-2 2-2zM4 15.2c-1 .6-2.2.2-2.7-.7s-.2-2.2.7-2.7c.3-.2.6-.3 1-.3 1.1 0 2 .9 2 2 0 .7-.4 1.4-1 1.7zm8.5-3.2c-.5.9-.5 2 0 2.9-2.1 1.4-4.8 1.4-6.9 0 .8-1.4.3-3.3-1.2-4-.4-.2-.9-.4-1.4-.4V10c0-2.3 1.4-4.4 3.5-5.4.9 1.4 2.7 1.8 4.1 1 .4-.2.7-.6 1-1 2.1 1 3.5 3.1 3.5 5.4v.5c-1.1.1-2 .6-2.6 1.5zm4.4 2.5c-.6 1-1.8 1.3-2.7.7s-1.3-1.8-.7-2.7c.4-.6 1-1 1.7-1 1.1 0 2 .9 2 2-.1.4-.2.7-.3 1z"/></svg>