<svg xmlns="http://www.w3.org/2000/svg" viewBox="0 0 99 92"><path d="M13.9 48.4c.8 0 1.5-.7 1.5-1.5v-7.2c0-.8-.7-1.5-1.5-1.5s-1.5.7-1.5 1.5v7.2c0 .8.6 1.5 1.5 1.5zm10 0c.8 0 1.5-.7 1.5-1.5V25.7c0-.8-.7-1.5-1.5-1.5s-1.5.7-1.5 1.5v21.2c0 .8.6 1.5 1.5 1.5zm10 0c.8 0 1.5-.7 1.5-1.5V31.7c0-.8-.7-1.5-1.5-1.5s-1.5.7-1.5 1.5v15.2c0 .8.6 1.5 1.5 1.5zm10 0c.8 0 1.5-.7 1.5-1.5V23.7c0-.8-.7-1.5-1.5-1.5s-1.5.7-1.5 1.5v23.2c0 .8.6 1.5 1.5 1.5z"/><path d="M0 61.1v10.3c0 3.3 2.7 6 6 6h42V89H30.7c-.8 0-1.5.7-1.5 1.5s.7 1.5 1.5 1.5h37.5c.8 0 1.5-.7 1.5-1.5S69 89 68.2 89H51V77.3h42c3.3 0 6-2.7 6-6V6c0-3.3-2.7-6-6-6H6C2.7 0 0 2.7 0 6v55.1zm93 13.2H6c-1.7 0-3-1.3-3-3v-8.9h93v8.9c0 1.7-1.4 3-3 3zM6 3h87c1.7 0 3 1.3 3 3v53.4H3V6c0-1.7 1.4-3 3-3z"/><path d="M61.4 39.8L59 42.2l6 6 2.4-2.4c.8.4 1.6.7 2.4 1v3.4h8.5v-3.4c.8-.3 1.7-.6 2.4-1l2.4 2.4 6-6-2.4-2.4c.4-.8.7-1.6 1-2.4h3.4v-8.5h-3.4c-.3-.8-.6-1.7-1-2.4l2.4-2.4-6-6-2.4 2.4c-.8-.4-1.6-.7-2.4-1V16h-8.5v3.4c-.8.3-1.7.6-2.4 1L65 18l-6 6 2.4 2.4c-.4.8-.7 1.6-1 2.4H57v8.5h3.4c.3.9.6 1.7 1 2.5zM60 31.9h2.8l.3-1.2c.3-1.3.8-2.6 1.5-3.7l.7-1-2-2 1.8-1.8 1.9 1.9 1-.6c1.1-.7 2.4-1.2 3.7-1.5l1.2-.3V19h2.5v2.8l1.2.3c1.3.3 2.6.8 3.7 1.5l1 .7 2-2L85 24l-2 2 .6 1c.7 1.1 1.2 2.4 1.5 3.7l.3 1.2h2.8v2.5h-2.8l-.3 1.2c-.3 1.3-.8 2.6-1.5 3.7l-.7 1 2 2-1.8 1.8-1.8-2.1-1 .6c-1.1.7-2.4 1.2-3.7 1.5l-1.2.3v2.8h-2.5v-2.8l-1.2-.3c-1.3-.3-2.6-.8-3.7-1.5l-1-.7-2 2-1.8-1.8 1.9-1.9-.6-1c-.7-1.1-1.2-2.4-1.5-3.7l-.3-1.2h-2.8l.1-2.4z"/><path d="M74.1 41.9c4.8 0 8.8-3.9 8.8-8.8 0-4.8-3.9-8.8-8.8-8.8s-8.8 3.9-8.8 8.8c.1 4.8 4 8.8 8.8 8.8zm0-14.6c3.2 0 5.8 2.6 5.8 5.8s-2.6 5.8-5.8 5.8-5.8-2.6-5.8-5.8c.1-3.2 2.6-5.8 5.8-5.8z"/></svg>