<svg xmlns="http://www.w3.org/2000/svg" viewBox="0 0 377.8 371.5"><path d="M353.3 317.9l-68.7-68.8c18.7-25.9 29.8-57.6 29.8-91.9 0-11.3-1.2-22.3-3.5-32.9l-16.5 12.4c1 6.7 1.5 13.5 1.5 20.5 0 76.5-62.2 138.7-138.7 138.7-76.5 0-138.7-62.2-138.7-138.7S80.7 18.5 157.2 18.5c46.5 0 87.7 23 112.9 58.3l15-10.8C256.6 26.1 209.9 0 157.2 0 70.5 0 0 70.5 0 157.2c0 86.7 70.5 157.2 157.2 157.2 29.7 0 57.5-8.3 81.2-22.6l70.5 70.5c5.9 5.9 13.8 9.2 22.2 9.2 8.4 0 16.3-3.3 22.2-9.2 5.9-5.9 9.2-13.8 9.2-22.2 0-8.4-3.2-16.3-9.2-22.2zm-13 31.3c-4.9 4.9-13.4 4.9-18.3 0L253.8 281c7.5-5.9 19.8-18 19.3-17.3l67.2 67.2c2.4 2.4 3.8 5.7 3.8 9.2 0 3.4-1.4 6.7-3.8 9.1z"/><path d="M77.9 210.7l-11.5-14.5L193.7 95l36 41.2L366.3 27l11.5 14.4-150.4 120.2-36-41.1z"/></svg>