<svg xmlns="http://www.w3.org/2000/svg" viewBox="0 0 93.4 89.8"><path d="M84.8 28.7c4.7 0 8.6-3.8 8.6-8.6s-3.8-8.6-8.6-8.6c-4.2 0-7.8 3-8.5 7.1H61.7C54.2 2.5 34.9-4.5 18.7 3.1s-23.2 26.8-15.6 43c5 10.7 15.4 17.8 27.2 18.6v17c0 1.1.9 2 2 2h44.4c1.4 4.5 6.2 7.1 10.7 5.7s7.1-6.2 5.7-10.7c-1.4-4.5-6.2-7.1-10.7-5.7-3.1.9-5.4 3.5-5.9 6.7H34.3v-15c8.1-.4 15.8-4 21.5-9.8h20.9c1.4 4.5 6.2 7.1 10.7 5.7s7.1-6.2 5.7-10.7c-1.4-4.5-6.2-7.1-10.7-5.7-3.1.9-5.4 3.5-5.9 6.7H59c5.8-8.2 7.4-18.7 4.3-28.3h13.3c1.2 3.6 4.5 6.1 8.2 6.1zm0-13.2c2.5 0 4.6 2 4.6 4.6s-2 4.6-4.6 4.6-4.6-2-4.6-4.6c.1-2.5 2.1-4.6 4.6-4.6zM23.2 5.6c-2.8 2.8-5 6-6.6 9.6-1.4-.9-2.7-2-3.9-3.1 3-2.9 6.6-5.1 10.5-6.5zM10 15c1.6 1.5 3.3 2.8 5.1 4-1.2 3.7-1.9 7.5-2 11.4h-9C4.5 24.8 6.6 19.5 10 15zM4.1 34.4h9c.1 3.9.8 7.7 2 11.5-1.8 1.2-3.5 2.5-5.1 4-3.4-4.5-5.5-9.9-5.9-15.5zm8.6 18.4c1.2-1.2 2.5-2.2 3.9-3.1 1.6 3.6 3.8 6.8 6.6 9.6-3.9-1.4-7.5-3.6-10.5-6.5zm17.8 7.1c-4.6-2.9-8.3-7.2-10.4-12.2 3.3-1.6 6.8-2.5 10.4-2.7v14.9zm0-19c-4.1.2-8 1.2-11.7 2.9-.9-3.1-1.4-6.3-1.5-9.5h13.3v6.6zm0-10.5H17.2c.1-3.2.7-6.4 1.6-9.5 3.7 1.7 7.7 2.7 11.8 3l-.1 6.5zm0-10.5c-3.6-.3-7.1-1.2-10.4-2.7 2.1-5.1 5.7-9.3 10.4-12.2v14.9zm54.3 56.7c2.5 0 4.6 2 4.6 4.6s-2 4.6-4.6 4.6-4.6-2-4.6-4.6c.1-2.6 2.1-4.6 4.6-4.6zm0-28.7c2.5 0 4.6 2 4.6 4.6s-2 4.6-4.6 4.6-4.6-2-4.6-4.6c.1-2.6 2.1-4.6 4.6-4.6zM60.7 30.4h-9c-.1-3.9-.8-7.8-2-11.5 1.8-1.2 3.5-2.5 5.1-4 3.5 4.5 5.5 9.9 5.9 15.5zM52.1 12c-1.2 1.2-2.5 2.2-3.8 3.1-1.6-3.6-3.8-6.8-6.6-9.5 3.9 1.3 7.5 3.5 10.4 6.4zM34.5 5c4.6 2.9 8.2 7.1 10.4 12.1-3.2 1.6-6.8 2.5-10.4 2.7V5zm0 18.9c4.1-.2 8.1-1.3 11.7-3 .9 3.1 1.4 6.3 1.5 9.5H34.5v-6.5zm0 10.5h13.3c-.1 3.2-.6 6.4-1.5 9.5-3.7-1.7-7.7-2.8-11.7-3l-.1-6.5zm0 25.5v-15c3.6.3 7.1 1.2 10.4 2.8-2.2 5-5.8 9.3-10.4 12.2zm7.2-.7c2.8-2.7 5-6 6.6-9.5 1.4.9 2.7 2 3.8 3.2-2.9 2.8-6.5 5-10.4 6.3zm13.1-9.3c-1.6-1.5-3.3-2.8-5.1-4 1.2-3.7 1.9-7.6 2-11.5h9c-.3 5.6-2.4 11-5.9 15.5z"/></svg>