<svg height="511pt" viewBox="-16 0 511 512" width="511pt" xmlns="http://www.w3.org/2000/svg"><path d="M281.465 511.992c61.902-2.148 119.047-31.668 156.781-80.992 4.844-6.332 3.692-15.64-3.074-20.438l-145.86-103.355c-9.48-6.719-22.62.07-22.62 11.691v178.766c0 7.774 6.398 14.617 14.773 14.328zm.226-142.777l28.692-28.692 14.262 10.106-42.95 42.95v-24.364zm0 45.582l55.372-55.371 14.257 10.105-69.629 69.63zM378 388.434l-96.309 96.308v-24.367l82.047-82.043zm26.676 18.906l-84.11 84.11a191.311 191.311 0 0 1-29.27 4.902l99.118-99.118zm-51.656 72.87l64.07-64.073 8.844 6.265c-19.536 25.36-44.621 45.032-72.914 57.809zm-55.051-148.483L281.69 348v-27.805zm0 0"/><path d="M462.652 212.215c.496 4.113 4.235 7.047 8.344 6.547a7.498 7.498 0 0 0 6.547-8.344C463.063 90.461 360.895 0 239.898 0 107.582 0 .5 107.07.5 239.398c0 129.696 103.035 235.457 232.168 239.29.145.003.289.007.434.007 3.73 0 7.246-1.425 9.941-4.043a14.425 14.425 0 0 0 4.355-10.297V375.66a7.5 7.5 0 0 0-7.5-7.5 7.497 7.497 0 0 0-7.5 7.5v88.012C110.715 459.687 15.5 361.312 15.5 239.398c0-121.226 96.617-220.308 216.898-224.273v325.531c0 4.145 3.356 7.5 7.5 7.5a7.5 7.5 0 0 0 7.5-7.5v-86.75l171.727 121.688c6.457 4.574 15.648 3.12 20.203-3.723 24.758-37.2 38.54-80.539 39.856-125.332a7.504 7.504 0 0 0-7.278-7.719c-4.164-.132-7.597 3.137-7.719 7.278-1.222 41.746-13.996 82.136-36.945 116.859L247.398 235.52V15.125c110.118 3.637 201.98 87.145 215.254 197.09zm0 0"/></svg>