<svg height="511pt" viewBox="0 -10 511.999 511" width="511pt" xmlns="http://www.w3.org/2000/svg"><path d="M472.04 240.25l-12.208-105.375c47.715-34.578 67.496-92.605 38.918-121.184C486.547 1.488 467.477-2.492 446.434 2.77c-18.641 4.66-37.758 16.078-53.829 32.148-.195.2-.382.402-.578.598l-141.07-16.344L0 270.132l221.078 221.079zM453.714 31.895c10.566-2.641 19.242-1.54 23.805 3.023 11.109 11.11.933 41.914-21.82 64.3l-3.497-30.175-24.558-24.559c8.57-6.066 17.585-10.468 26.07-12.59zM261.922 50.668l108.941 12.621c-4.582 8.09-8.035 16.395-10.18 24.625L350.149 77.38l-21.226 21.226 63.683 63.688 21.23-21.23-21.23-21.227c-4.562-4.563-5.664-13.238-3.023-23.805 2.356-9.422 7.52-19.492 14.652-28.879l4.098.477 15.254 15.254 16.96 146.406-219.468 219.465L42.457 270.133zm0 0"/><path d="M165.723 211.617c-24.828 0-45.032 20.203-45.032 45.035 0 24.828 20.204 45.032 45.032 45.032 24.832 0 45.035-20.204 45.035-45.032 0-24.832-20.203-45.035-45.035-45.035zm0 60.043c-8.278 0-15.008-6.734-15.008-15.008 0-8.277 6.73-15.011 15.008-15.011s15.011 6.734 15.011 15.011c0 8.274-6.73 15.008-15.011 15.008zm150.109 30.024c24.832 0 45.035-20.204 45.035-45.032 0-24.832-20.203-45.035-45.035-45.035s-45.031 20.203-45.031 45.035c0 24.828 20.199 45.032 45.031 45.032zm0-60.043c8.277 0 15.012 6.734 15.012 15.011 0 8.274-6.735 15.008-15.012 15.008-8.277 0-15.012-6.734-15.012-15.008 0-8.277 6.735-15.011 15.012-15.011zm-74.848-77.52l29.614 4.934-30.024 180.132-29.613-4.937zm0 0"/></svg>