<svg height="512pt" viewBox="0 -1 512 512" width="512pt" xmlns="http://www.w3.org/2000/svg"><path d="M496.793 0H15.207C6.813 0 0 6.813 0 15.207v480.164c0 8.395 6.813 15.211 15.207 15.211h481.586c8.395 0 15.207-6.816 15.207-15.21V15.206C512 6.812 505.187 0 496.793 0zm-15.207 30.414v37.77H226.508l-13.11-37.77zm0 449.75H30.414V30.414h150.793l20.106 57.965a15.215 15.215 0 0 0 14.367 10.219h265.906zm0 0"/><path d="M69.379 77.64c8.394 0 15.207-6.8 15.207-15.206 0-8.395-6.813-15.207-15.207-15.207-8.395 0-15.207 6.812-15.207 15.207 0 8.406 6.812 15.207 15.207 15.207zm42.988 0h43.594c8.406 0 15.21-6.8 15.21-15.206 0-8.395-6.804-15.207-15.21-15.207h-43.594c-8.394 0-15.207 6.812-15.207 15.207 0 8.406 6.813 15.207 15.207 15.207zM55.71 160.098v89.109c0 8.395 6.813 15.207 15.208 15.207h370.164c8.395 0 15.207-6.812 15.207-15.207v-89.11c0-8.402-6.812-15.206-15.207-15.206H70.918c-8.395 0-15.207 6.804-15.207 15.207zm30.419 15.21H425.87V234H86.13zM227.613 298.48H70.918c-8.395 0-15.207 6.813-15.207 15.208 0 8.406 6.812 15.21 15.207 15.21h156.695c8.395 0 15.207-6.804 15.207-15.21 0-8.395-6.812-15.208-15.207-15.208zm0 63.875H70.918c-8.395 0-15.207 6.801-15.207 15.208 0 8.394 6.812 15.207 15.207 15.207h156.695c8.395 0 15.207-6.813 15.207-15.207 0-8.407-6.812-15.208-15.207-15.208zm0 63.864H70.918c-8.395 0-15.207 6.812-15.207 15.207 0 8.402 6.812 15.207 15.207 15.207h156.695c8.395 0 15.207-6.805 15.207-15.207 0-8.395-6.812-15.207-15.207-15.207zM441.082 298.48H299.598c-8.395 0-15.211 6.813-15.211 15.208v127.738c0 8.43 6.843 15.207 15.21 15.207h141.485c8.395 0 15.207-6.805 15.207-15.207V313.688c0-8.864-7.266-15.208-15.207-15.208zm-126.277 30.418h86.746l-86.746 78.309zm111.066 97.32h-86.734l86.734-78.312zm0 0"/></svg>