<svg xmlns="http://www.w3.org/2000/svg" viewBox="0 0 539.077 539.077"><path d="M78.615 494.154c-1.448 0-2.906-.285-4.299-.855a11.218 11.218 0 0 1-6.931-10.375v-78.615H33.692C15.113 404.308 0 389.194 0 370.615v-292c0-18.579 15.113-33.692 33.692-33.692h471.692c18.579 0 33.692 15.113 33.692 33.692v292c0 18.579-15.113 33.692-33.692 33.692H173.112l-86.556 86.556a11.228 11.228 0 0 1-7.941 3.291zM33.692 67.385c-6.197 0-11.231 5.034-11.231 11.231v292c0 6.186 5.034 11.231 11.231 11.231h44.923a11.224 11.224 0 0 1 11.231 11.231v62.734l70.675-70.675a11.222 11.222 0 0 1 7.941-3.29h336.923c6.186 0 11.231-5.045 11.231-11.231v-292c0-6.197-5.045-11.231-11.231-11.231H33.692z"/><path d="M190.923 247.077c-12.382 0-22.462-10.079-22.462-22.462 0-12.382 10.079-22.462 22.462-22.462 12.382 0 22.462 10.079 22.462 22.462s-10.08 22.462-22.462 22.462zm179.692 0c-12.393 0-22.462-10.079-22.462-22.462 0-12.382 10.068-22.462 22.462-22.462s22.462 10.079 22.462 22.462-10.068 22.462-22.462 22.462zm-89.846 0c-12.382 0-22.462-10.079-22.462-22.462 0-12.382 10.079-22.462 22.462-22.462 12.393 0 22.462 10.079 22.462 22.462s-10.068 22.462-22.462 22.462z"/></svg>